<?xml version="1.0" encoding="UTF-8"?>
<svg id="Layer_2" data-name="Layer 2" xmlns="http://www.w3.org/2000/svg" viewBox="0 0 350.65 165.2">
  <defs>
    <style>
      .cls-1 {
        fill: #a8e39e;
        stroke-width: 0px;
      }
    </style>
  </defs>
  <g id="Layer_1-2" data-name="Layer 1">
    <g>
      <path class="cls-1" d="m268.07,82.61c-24.64,0-46.74,10.8-61.87,27.91v-28.33h-20.58v78.34c-.09,1.54-.14,3.1-.14,4.67h20.72v-5.79c2.92-31.61,29.5-56.36,61.87-56.36,34.32,0,62.15,27.83,62.15,62.15h20.44c0-45.61-36.98-82.59-82.59-82.59Z"/>
      <path class="cls-1" d="m82.59,164.78c24.64,0,46.74-10.8,61.87-27.91v28.33h20.58v-78.34c.09-1.54.14-3.1.14-4.67h-20.72v5.79c-2.92,31.61-29.5,56.36-61.87,56.36-34.32,0-62.15-27.83-62.15-62.15H0c0,45.61,36.98,82.59,82.59,82.59Z"/>
      <circle class="cls-1" cx="175.57" cy="31.45" r="31.45"/>
    </g>
  </g>
</svg>